<svg width="241" height="60" viewBox="0 0 241 60" fill="none" xmlns="http://www.w3.org/2000/svg">
<path d="M86.75 27.2C85.9167 27.2 85.1167 27.3333 84.35 27.6C83.6167 27.8667 82.9667 28.2667 82.4 28.8C81.8667 29.3 81.4333 29.9333 81.1 30.7C80.7667 31.4667 80.6 32.3667 80.6 33.4C80.6 35.4667 81.1833 37.0167 82.35 38.05C83.55 39.0833 85 39.6 86.7 39.6C87.7 39.6 88.5667 39.4833 89.3 39.25C90.0333 39.0167 90.6833 38.7667 91.25 38.5C91.9167 38.9667 92.4167 39.4833 92.75 40.05C93.0833 40.5833 93.25 41.2333 93.25 42C93.25 43.3667 92.6 44.4333 91.3 45.2C90 45.9333 88.2 46.3 85.9 46.3C83.8 46.3 81.9 46 80.2 45.4C78.5 44.7667 77.0333 43.9 75.8 42.8C74.6 41.6667 73.6667 40.3167 73 38.75C72.3333 37.1833 72 35.45 72 33.55C72 31.35 72.35 29.4333 73.05 27.8C73.7833 26.1333 74.7667 24.7667 76 23.7C77.2333 22.6333 78.65 21.8333 80.25 21.3C81.8833 20.7667 83.6 20.5 85.4 20.5C87.8 20.5 89.65 20.9333 90.95 21.8C92.25 22.6667 92.9 23.7833 92.9 25.15C92.9 25.7833 92.75 26.3833 92.45 26.95C92.15 27.4833 91.8 27.95 91.4 28.35C90.8333 28.0833 90.15 27.8333 89.35 27.6C88.55 27.3333 87.6833 27.2 86.75 27.2Z" fill="#00FFF0"/>
<path d="M107.913 40.15C108.48 40.15 109.096 40.1 109.763 40C110.463 39.8667 110.98 39.7 111.313 39.5V35.5L107.713 35.8C106.78 35.8667 106.013 36.0667 105.413 36.4C104.813 36.7333 104.513 37.2333 104.513 37.9C104.513 38.5667 104.763 39.1167 105.263 39.55C105.796 39.95 106.68 40.15 107.913 40.15ZM107.513 20.5C109.313 20.5 110.946 20.6833 112.413 21.05C113.913 21.4167 115.18 21.9833 116.213 22.75C117.28 23.4833 118.096 24.4333 118.663 25.6C119.23 26.7333 119.513 28.0833 119.513 29.65V40.85C119.513 41.7167 119.263 42.4333 118.763 43C118.296 43.5333 117.73 44 117.063 44.4C114.896 45.7 111.846 46.35 107.913 46.35C106.146 46.35 104.546 46.1833 103.113 45.85C101.713 45.5167 100.496 45.0167 99.4629 44.35C98.4629 43.6833 97.6796 42.8333 97.1129 41.8C96.5796 40.7667 96.3129 39.5667 96.3129 38.2C96.3129 35.9 96.9962 34.1333 98.3629 32.9C99.7296 31.6667 101.846 30.9 104.713 30.6L111.263 29.9V29.55C111.263 28.5833 110.83 27.9 109.963 27.5C109.13 27.0667 107.913 26.85 106.313 26.85C105.046 26.85 103.813 26.9833 102.613 27.25C101.413 27.5167 100.33 27.85 99.3629 28.25C98.9296 27.95 98.5629 27.5 98.2629 26.9C97.9629 26.2667 97.8129 25.6167 97.8129 24.95C97.8129 24.0833 98.0129 23.4 98.4129 22.9C98.8462 22.3667 99.4962 21.9167 100.363 21.55C101.33 21.1833 102.463 20.9167 103.763 20.75C105.096 20.5833 106.346 20.5 107.513 20.5Z" fill="#00FFF0"/>
<path d="M124.81 13C125.143 12.9 125.677 12.8 126.41 12.7C127.143 12.5667 127.893 12.5 128.66 12.5C129.393 12.5 130.043 12.55 130.61 12.65C131.21 12.75 131.71 12.95 132.11 13.25C132.51 13.55 132.81 13.9667 133.01 14.5C133.21 15 133.31 15.6667 133.31 16.5V21.4C134.143 21.0667 134.927 20.8333 135.66 20.7C136.427 20.5667 137.26 20.5 138.16 20.5C139.76 20.5 141.277 20.7833 142.71 21.35C144.143 21.9167 145.41 22.75 146.51 23.85C147.61 24.9167 148.477 26.25 149.11 27.85C149.743 29.45 150.06 31.3 150.06 33.4C150.06 35.5667 149.727 37.4667 149.06 39.1C148.427 40.7 147.527 42.0333 146.36 43.1C145.193 44.1667 143.76 44.9833 142.06 45.55C140.393 46.0833 138.543 46.35 136.51 46.35C134.31 46.35 132.443 46.0833 130.91 45.55C129.377 45.05 128.077 44.4167 127.01 43.65C125.543 42.6167 124.81 41.2833 124.81 39.65V13ZM136.51 39.65C138.043 39.65 139.227 39.1333 140.06 38.1C140.927 37.0333 141.36 35.4667 141.36 33.4C141.36 31.3 140.927 29.7333 140.06 28.7C139.193 27.6667 138.027 27.15 136.56 27.15C135.893 27.15 135.31 27.2167 134.81 27.35C134.343 27.4833 133.827 27.6833 133.26 27.95V38.85C133.627 39.0833 134.06 39.2833 134.56 39.45C135.093 39.5833 135.743 39.65 136.51 39.65Z" fill="#00FFF0"/>
<path d="M154.002 14.5C154.002 13.2333 154.419 12.1667 155.252 11.3C156.119 10.4333 157.252 10 158.652 10C160.052 10 161.169 10.4333 162.002 11.3C162.869 12.1667 163.302 13.2333 163.302 14.5C163.302 15.7667 162.869 16.8333 162.002 17.7C161.169 18.5667 160.052 19 158.652 19C157.252 19 156.119 18.5667 155.252 17.7C154.419 16.8333 154.002 15.7667 154.002 14.5ZM162.902 45.5C162.536 45.5667 161.986 45.65 161.252 45.75C160.552 45.8833 159.836 45.95 159.102 45.95C158.369 45.95 157.702 45.9 157.102 45.8C156.536 45.7 156.052 45.5 155.652 45.2C155.252 44.9 154.936 44.5 154.702 44C154.502 43.4667 154.402 42.7833 154.402 41.95V21.6C154.769 21.5333 155.302 21.45 156.002 21.35C156.736 21.2167 157.469 21.15 158.202 21.15C158.936 21.15 159.586 21.2 160.152 21.3C160.752 21.4 161.252 21.6 161.652 21.9C162.052 22.2 162.352 22.6167 162.552 23.15C162.786 23.65 162.902 24.3167 162.902 25.15V45.5Z" fill="#00FFF0"/>
<path d="M183.714 30.15C183.714 29.1167 183.414 28.3667 182.814 27.9C182.247 27.4 181.464 27.15 180.464 27.15C179.797 27.15 179.13 27.2333 178.464 27.4C177.83 27.5667 177.28 27.8167 176.814 28.15V45.5C176.48 45.6 175.947 45.7 175.214 45.8C174.514 45.9 173.78 45.95 173.014 45.95C172.28 45.95 171.614 45.9 171.014 45.8C170.447 45.7 169.964 45.5 169.564 45.2C169.164 44.9 168.847 44.5 168.614 44C168.414 43.4667 168.314 42.7833 168.314 41.95V26.95C168.314 26.05 168.497 25.3167 168.864 24.75C169.264 24.1833 169.797 23.6667 170.464 23.2C171.597 22.4 173.014 21.75 174.714 21.25C176.447 20.75 178.364 20.5 180.464 20.5C184.23 20.5 187.13 21.3333 189.164 23C191.197 24.6333 192.214 26.9167 192.214 29.85V45.5C191.88 45.6 191.347 45.7 190.614 45.8C189.914 45.9 189.18 45.95 188.414 45.95C187.68 45.95 187.014 45.9 186.414 45.8C185.847 45.7 185.364 45.5 184.964 45.2C184.564 44.9 184.247 44.5 184.014 44C183.814 43.4667 183.714 42.7833 183.714 41.95V30.15Z" fill="#00FFF0"/>
<path d="M210.314 46.35C208.347 46.35 206.514 46.0833 204.814 45.55C203.147 44.9833 201.681 44.15 200.414 43.05C199.181 41.95 198.197 40.5667 197.464 38.9C196.764 37.2333 196.414 35.2833 196.414 33.05C196.414 30.85 196.764 28.9667 197.464 27.4C198.197 25.8 199.147 24.5 200.314 23.5C201.481 22.4667 202.814 21.7167 204.314 21.25C205.814 20.75 207.347 20.5 208.914 20.5C210.681 20.5 212.281 20.7667 213.714 21.3C215.181 21.8333 216.431 22.5667 217.464 23.5C218.531 24.4333 219.347 25.55 219.914 26.85C220.514 28.15 220.814 29.5667 220.814 31.1C220.814 32.2333 220.497 33.1 219.864 33.7C219.231 34.3 218.347 34.6833 217.214 34.85L204.864 36.7C205.231 37.8 205.981 38.6333 207.114 39.2C208.247 39.7333 209.547 40 211.014 40C212.381 40 213.664 39.8333 214.864 39.5C216.097 39.1333 217.097 38.7167 217.864 38.25C218.397 38.5833 218.847 39.05 219.214 39.65C219.581 40.25 219.764 40.8833 219.764 41.55C219.764 43.05 219.064 44.1667 217.664 44.9C216.597 45.4667 215.397 45.85 214.064 46.05C212.731 46.25 211.481 46.35 210.314 46.35ZM208.914 26.7C208.114 26.7 207.414 26.8333 206.814 27.1C206.247 27.3667 205.781 27.7167 205.414 28.15C205.047 28.55 204.764 29.0167 204.564 29.55C204.397 30.05 204.297 30.5667 204.264 31.1L212.814 29.7C212.714 29.0333 212.347 28.3667 211.714 27.7C211.081 27.0333 210.147 26.7 208.914 26.7Z" fill="#00FFF0"/>
<path d="M233.405 37.2C233.405 38.0667 233.672 38.6833 234.205 39.05C234.772 39.4167 235.555 39.6 236.555 39.6C237.055 39.6 237.572 39.5667 238.105 39.5C238.639 39.4 239.105 39.2833 239.505 39.15C239.805 39.5167 240.055 39.9333 240.255 40.4C240.489 40.8333 240.605 41.3667 240.605 42C240.605 43.2667 240.122 44.3 239.155 45.1C238.222 45.9 236.555 46.3 234.155 46.3C231.222 46.3 228.955 45.6333 227.355 44.3C225.789 42.9667 225.005 40.8 225.005 37.8V16.4C225.372 16.3 225.889 16.2 226.555 16.1C227.255 15.9667 227.989 15.9 228.755 15.9C230.222 15.9 231.355 16.1667 232.155 16.7C232.989 17.2 233.405 18.2833 233.405 19.95V23.15H239.955C240.155 23.5167 240.339 23.9833 240.505 24.55C240.705 25.0833 240.805 25.6833 240.805 26.35C240.805 27.5167 240.539 28.3667 240.005 28.9C239.505 29.4 238.822 29.65 237.955 29.65H233.405V37.2Z" fill="#00FFF0"/>
<circle cx="31" cy="30" r="30" fill="#00FFF0"/>
<path d="M35.3013 18.96C32.2213 18.96 29.8613 19.9 28.2213 21.78C26.5813 23.66 25.7613 26.32 25.7613 29.76C25.7613 33.24 26.6613 35.92 28.4613 37.8C30.3013 39.68 32.7613 40.62 35.8413 40.62C37.4813 40.62 38.8613 40.4 39.9813 39.96C41.1413 39.52 42.2413 39.02 43.2813 38.46C43.9613 39.02 44.4813 39.7 44.8413 40.5C45.2413 41.26 45.4413 42.16 45.4413 43.2C45.4413 44.84 44.5213 46.24 42.6813 47.4C40.8813 48.52 38.1213 49.08 34.4013 49.08C31.7213 49.08 29.2013 48.7 26.8413 47.94C24.4813 47.18 22.4213 46.02 20.6613 44.46C18.9013 42.86 17.5013 40.86 16.4613 38.46C15.4613 36.02 14.9613 33.12 14.9613 29.76C14.9613 26.64 15.4413 23.9 16.4013 21.54C17.4013 19.14 18.7413 17.12 20.4213 15.48C22.1413 13.84 24.1413 12.6 26.4213 11.76C28.7013 10.92 31.1413 10.5 33.7413 10.5C37.4213 10.5 40.2613 11.1 42.2613 12.3C44.3013 13.5 45.3213 15.04 45.3213 16.92C45.3213 17.96 45.0613 18.86 44.5413 19.62C44.0213 20.38 43.4213 20.98 42.7413 21.42C41.7013 20.74 40.5813 20.16 39.3813 19.68C38.2213 19.2 36.8613 18.96 35.3013 18.96Z" fill="#171717"/>
</svg>
